<?xml version="1.0" encoding="iso-8859-1"?>
<!-- Uploaded to: SVG Repo, www.svgrepo.com, Generator: SVG Repo Mixer Tools -->
<svg height="800px" width="800px" version="1.1" id="Layer_1" xmlns="http://www.w3.org/2000/svg" xmlns:xlink="http://www.w3.org/1999/xlink" 
	 viewBox="0 0 511.999 511.999" xml:space="preserve">
<path style="fill:#DBE9FD;" d="M256,29.174L55.652,229.522v22.261v232.391c0,9.223,7.473,16.696,16.696,16.696h367.304
	c9.223,0,16.696-7.473,16.696-16.696V229.522L256,29.174z"/>
<path style="fill:#C5DCFD;" d="M256,29.174v471.696h183.652c9.223,0,16.696-7.473,16.696-16.696V229.522L256,29.174z"/>
<path style="fill:#875334;" d="M456.348,233.739L356.174,133.565V94.609c0-9.22,7.475-16.696,16.696-16.696h66.783
	c9.22,0,16.696,7.475,16.696,16.696V233.739z"/>
<path style="fill:#FF6243;" d="M495.305,283.826c-4.272,0-8.544-1.631-11.804-4.892L256,51.435L28.5,278.934
	c-6.521,6.521-17.087,6.521-23.609,0c-6.521-6.516-6.521-17.092,0-23.609L244.195,16.021c6.521-6.521,17.087-6.521,23.609,0
	l239.304,239.304c6.521,6.516,6.521,17.092,0,23.609C503.848,282.195,499.576,283.826,495.305,283.826z"/>
<path style="fill:#FF3501;" d="M267.804,16.022c-3.26-3.261-7.532-4.892-11.804-4.892v40.304l227.501,227.501
	c3.261,3.261,7.533,4.892,11.804,4.892s8.544-1.631,11.804-4.892c6.521-6.516,6.521-17.092,0-23.609L267.804,16.022z"/>
<path style="fill:#EFBE44;" d="M373.538,355.506l-16.696-16.696c-3.117-3.117-7.346-4.897-11.798-4.897h-22.261v-22.261
	c0-4.452-1.781-8.682-4.897-11.798l-29.05-29.05c0.334-3.117,0.557-6.233,0.557-9.238c0-27.27-13.134-51.534-33.391-66.56
	c-13.913-10.685-31.277-16.918-50.087-16.918c-46.08,0-83.478,37.398-83.478,83.478s37.398,83.478,83.478,83.478
	c3.005,0,6.122-0.223,9.238-0.557l84.703,84.703c3.116,3.116,7.346,4.897,11.798,4.897h50.087c9.238,0,16.696-7.457,16.696-16.696
	v-50.087C378.435,362.852,376.654,358.622,373.538,355.506z"/>
<path style="fill:#95673F;" d="M205.913,244.869c-5.058,0-9.58,2.257-12.642,5.81c-2.52,2.924-4.054,6.723-4.054,10.886
	c0,9.22,7.475,16.696,16.696,16.696c4.163,0,7.962-1.534,10.886-4.054c3.552-3.061,5.81-7.584,5.81-12.642
	C222.609,252.345,215.134,244.869,205.913,244.869z"/>
<path style="fill:#EFBE44;" d="M205.913,278.261c-9.22,0-16.696-7.475-16.696-16.696c0-4.163,1.534-7.962,4.054-10.886
	l-47.234-47.235c-14.596,15.035-23.602,35.527-23.602,58.121c0,46.08,37.398,83.478,83.478,83.478c3.005,0,6.122-0.223,9.238-0.557
	l84.703,84.703c3.116,3.115,7.346,4.897,11.798,4.897h50.087c4.171,0,7.969-1.53,10.892-4.047L216.799,274.207
	C213.875,276.727,210.076,278.261,205.913,278.261z"/>
<path style="fill:#E4A738;" d="M378.435,417.391v-50.087c0-4.452-1.781-8.682-4.897-11.798l-16.696-16.696
	c-3.117-3.117-7.346-4.897-11.798-4.897h-22.261v-22.261c0-4.452-1.781-8.682-4.897-11.798l-29.05-29.05
	c0.334-3.117,0.557-6.233,0.557-9.238c0-27.27-13.134-51.534-33.391-66.56c-13.913-10.685-31.277-16.918-50.087-16.918
	c-23.486,0-44.703,9.729-59.876,25.358l47.234,47.235c3.062-3.553,7.584-5.81,12.642-5.81c9.22,0,16.696,7.475,16.696,16.696
	c0,5.058-2.258,9.58-5.81,12.642l155.833,155.833C376.182,426.98,378.435,422.459,378.435,417.391z"/>
<path style="fill:#875334;" d="M222.609,261.565c0-9.22-7.475-16.696-16.696-16.696c-5.058,0-9.58,2.257-12.642,5.81l23.528,23.527
	C220.351,271.145,222.609,266.623,222.609,261.565z"/>
</svg>