<?xml version="1.0" encoding="iso-8859-1"?>
<!-- Uploaded to: SVG Repo, www.svgrepo.com, Generator: SVG Repo Mixer Tools -->
<svg height="800px" width="800px" version="1.1" id="Layer_1" xmlns="http://www.w3.org/2000/svg" xmlns:xlink="http://www.w3.org/1999/xlink" 
	 viewBox="0 0 511.999 511.999" xml:space="preserve">
<path style="fill:#DBE9FD;" d="M256,29.174L55.652,229.522v22.261v232.391c0,9.223,7.473,16.696,16.696,16.696h367.304
	c9.223,0,16.696-7.473,16.696-16.696V229.522L256,29.174z"/>
<path style="fill:#C5DCFD;" d="M256,29.174v471.696h183.652c9.223,0,16.696-7.473,16.696-16.696V229.522L256,29.174z"/>
<path style="fill:#875334;" d="M456.348,233.739L356.174,133.565V94.609c0-9.22,7.475-16.696,16.696-16.696h66.783
	c9.22,0,16.696,7.475,16.696,16.696V233.739z"/>
<path style="fill:#FF6243;" d="M495.305,283.826c-4.272,0-8.544-1.631-11.804-4.892L256,51.435L28.5,278.934
	c-6.521,6.521-17.087,6.521-23.609,0c-6.521-6.516-6.521-17.092,0-23.609L244.195,16.021c6.521-6.521,17.087-6.521,23.609,0
	l239.304,239.304c6.521,6.516,6.521,17.092,0,23.609C503.848,282.195,499.576,283.826,495.305,283.826z"/>
<path style="fill:#FF3501;" d="M267.804,16.022c-3.26-3.261-7.532-4.892-11.804-4.892v40.304l227.501,227.501
	c3.261,3.261,7.533,4.892,11.804,4.892s8.544-1.631,11.804-4.892c6.521-6.516,6.521-17.092,0-23.609L267.804,16.022z"/>
<path style="fill:#9DCA40;" d="M352.758,350.865c6.611-10.074,11.963-21.092,15.819-32.977c9.917-29.277,11.57-63.515,4.408-100.583
	c-0.551-3.07-1.18-6.217-1.889-9.287c-0.709-3.227-2.44-6.217-4.802-8.421c-2.125-1.968-4.722-3.306-7.713-4.093
	c-3.07-0.708-6.059-1.338-9.13-1.889c-37.148-7.241-71.542-5.431-100.819,4.644c-11.884,4.014-22.903,9.366-32.898,16.056
	c-41.168,26.742-63.82,74.424-61.389,117.584c1.126,20.991,8.621,42.149,23.06,56.588l0.393,0.393
	c16.346,16.346,39.954,23.454,63.121,23.454C281.735,412.332,326.63,390.656,352.758,350.865z"/>
<path style="fill:#8EB043;" d="M240.92,412.332c-23.165,0-46.777-7.11-63.121-23.454l-0.393-0.393l188.89-188.89
	c2.361,2.204,4.093,5.195,4.802,8.421c0.708,3.07,1.338,6.217,1.889,9.287c7.162,37.069,5.51,71.306-4.408,100.583
	c-3.857,11.884-9.208,22.903-15.819,32.977C326.633,390.65,281.743,412.332,240.92,412.332z"/>
<path style="fill:#89B138;" d="M371.097,208.017c0.708,3.07,1.338,6.217,1.889,9.287L162.058,428.23
	c-3.227,3.227-7.555,4.88-11.806,4.88c-4.25,0-8.578-1.653-11.806-4.88c-0.157-0.157-0.236-0.236-0.315-0.472
	c-6.217-6.532-6.061-16.764,0.315-23.139l211.006-211.005c3.07,0.551,6.061,1.181,9.13,1.889c2.991,0.787,5.587,2.125,7.713,4.093
	C368.656,201.799,370.388,204.79,371.097,208.017z"/>
<path style="fill:#799739;" d="M371.097,208.017c0.708,3.07,1.338,6.217,1.889,9.287L162.058,428.23
	c-3.227,3.227-7.555,4.88-11.806,4.88c-4.25,0-8.578-1.653-11.806-4.88c-0.157-0.157-0.236-0.236-0.315-0.472l228.163-228.163
	C368.656,201.799,370.388,204.79,371.097,208.017z"/>
<path style="fill:#89B138;" d="M352.758,350.865c-119.866-6.847-104.283-6.061-114.514-6.532c-4.565,0-8.736-1.81-11.806-4.88
	c-2.991-2.991-4.802-7.161-4.88-11.806c-0.63-10.074,0.157,5.352-5.825-113.333c9.995-6.689,21.014-12.042,32.898-16.056
	c6.296,106.722,5.116,84.607,6.296,112.703c29.198,2.125,6.846,0.709,113.648,6.926C364.721,329.771,359.37,340.79,352.758,350.865z
	"/>
<path style="fill:#799739;" d="M352.758,350.865c-119.866-6.847-104.283-6.061-114.514-6.532c-4.565,0-8.736-1.81-11.806-4.88
	l28.491-28.491c29.198,2.125,6.846,0.709,113.648,6.926C364.721,329.771,359.37,340.79,352.758,350.865z"/>
</svg>